# xmcd
#
# Track frame offsets:
#	150
#	12739
#	33178
#	44712
#	63076
#	74806
#	94242
#	107841
#	119325
#	142339
#	156276
#	178762
#	193958
#	207472
#	217125
#	228345
#
# Disc length: 3235 seconds
#
# Revision: 0
# Processed by: cddbd v1.5.2PL0 Copyright (c) Steve Scherf et al.
# Submitted via: dBpowerAMP V4.0
#
DISCID=070ca110
DTITLE=Various Artist - Solo Soul CD1
DYEAR=1900
DGENRE=Soul
TTITLE0=You can't hurry love - The supremes
TTITLE1=Tell me something good - Rufus
TTITLE2=Dancing in the street - Martha Reeves and The Vandellas
TTITLE3=Ball of confusion - The temptations
TTITLE4=Piece of my heart - Erma Franklin
TTITLE5=Don't look any further - Dennis Edwards
TTITLE6=Build me up buttercup - The foundations
TTITLE7=Soul man - Sam and Dave
TTITLE8=Sex machine - James Brown
TTITLE9=Knock on wood - Eddie Floyd
TTITLE10=I can't get you out of my mind - Richenel
TTITLE11=Crazy 'bout you baby - Ike and Tina Turner
TTITLE12=It's all right - The impressions
TTITLE13=The snake - The isley brothers
TTITLE14=How do you say goodbye? - Gladys Night and The pips
TTITLE15=I can't turn you loose - Sly and The family Stone
EXTD=
EXTT0=
EXTT1=
EXTT2=
EXTT3=
EXTT4=
EXTT5=
EXTT6=
EXTT7=
EXTT8=
EXTT9=
EXTT10=
EXTT11=
EXTT12=
EXTT13=
EXTT14=
EXTT15=
PLAYORDER=
